<svg xmlns="http://www.w3.org/2000/svg" width="256" height="256" viewBox="0 0 256 256">
  <metadata><?xpacket begin="﻿" id="W5M0MpCehiHzreSzNTczkc9d"?>
<x:xmpmeta xmlns:x="adobe:ns:meta/" x:xmptk="Adobe XMP Core 5.6-c142 79.160924, 2017/07/13-01:06:39        ">
   <rdf:RDF xmlns:rdf="http://www.w3.org/1999/02/22-rdf-syntax-ns#">
      <rdf:Description rdf:about=""/>
   </rdf:RDF>
</x:xmpmeta>
                                                                                                    
                                                                                                    
                                                                                                    
                                                                                                    
                                                                                                    
                                                                                                    
                                                                                                    
                                                                                                    
                                                                                                    
                                                                                                    
                                                                                                    
                                                                                                    
                                                                                                    
                                                                                                    
                                                                                                    
                                                                                                    
                                                                                                    
                                                                                                    
                                                                                                    
                                                                                                    
                           
<?xpacket end="w"?></metadata>
<defs>
    <style>
      .cls-1 {
        fill: #209ddf;
      }

      .cls-2 {
        fill: #fff;
        fill-rule: evenodd;
      }

      .cls-3 {
        fill: none;
      }
    </style>
  </defs>
  <g id="한글">
    <path class="cls-1" d="M85,9H247a0,0,0,0,1,0,0V171a76,76,0,0,1-76,76H9a0,0,0,0,1,0,0V85A76,76,0,0,1,85,9Z"/>
    <path id="한" class="cls-2" d="M85,193V160H99v19h73v14H85Zm52.219-29.312a9.969,9.969,0,1,1-9.969-9.938A9.953,9.953,0,0,1,137.219,163.688Zm-38.031-40.5a27.422,27.422,0,1,1,27.421,27.407A27.414,27.414,0,0,1,99.188,123.187Zm27.438,13.751a13.719,13.719,0,1,0-13.688-13.719A13.7,13.7,0,0,0,126.625,136.938ZM88,79h33V64h14V79h34l0.064,14H88V79Z"/>
    <rect class="cls-3" width="256" height="256"/>
  </g>
</svg>
