
<svg xmlns="http://www.w3.org/2000/svg" xmlns:xlink="http://www.w3.org/1999/xlink" width="256px" height="256px" viewBox="0 0 256 256" version="1.1">
<g id="surface1">
<path style=" stroke:none;fill-rule:nonzero;fill:rgb(100%,90.980393%,7.058824%);fill-opacity:1;" d="M 256 236 C 256 247.046875 247.046875 256 236 256 L 20 256 C 8.953125 256 0 247.046875 0 236 L 0 20 C 0 8.953125 8.953125 0 20 0 L 236 0 C 247.046875 0 256 8.953125 256 20 Z M 256 236 "/>
<path style=" stroke:none;fill-rule:nonzero;fill:rgb(0%,0%,0%);fill-opacity:1;" d="M 128 36 C 70.5625 36 24 72.714844 24 118 C 24 147.277344 43.464844 172.96875 72.746094 187.476562 C 71.15625 192.972656 62.511719 222.820312 62.167969 225.164062 C 62.167969 225.164062 61.960938 226.929688 63.101562 227.601562 C 64.242188 228.273438 65.585938 227.75 65.585938 227.75 C 68.855469 227.292969 103.527344 202.9375 109.527344 198.710938 C 115.523438 199.558594 121.695312 200 128 200 C 185.4375 200 232 163.289062 232 118 C 232 72.714844 185.4375 36 128 36 Z M 128 36 "/>
<path style=" stroke:none;fill-rule:nonzero;fill:rgb(100%,90.980393%,7.058824%);fill-opacity:1;" d="M 70.5 146.625 C 67.191406 146.625 64.5 144.054688 64.5 140.894531 L 64.5 105.25 L 55.136719 105.25 C 51.890625 105.25 49.25 102.613281 49.25 99.375 C 49.25 96.136719 51.890625 93.5 55.136719 93.5 L 85.863281 93.5 C 89.109375 93.5 91.75 96.136719 91.75 99.375 C 91.75 102.613281 89.109375 105.25 85.863281 105.25 L 76.5 105.25 L 76.5 140.894531 C 76.5 144.054688 73.808594 146.625 70.5 146.625 Z M 123.113281 146.546875 C 120.609375 146.546875 118.695312 145.53125 118.117188 143.898438 L 115.148438 136.117188 L 96.851562 136.117188 L 93.878906 143.902344 C 93.304688 145.53125 91.390625 146.546875 88.890625 146.546875 C 87.574219 146.546875 86.273438 146.265625 85.074219 145.71875 C 83.421875 144.957031 81.832031 142.859375 83.652344 137.199219 L 98.003906 99.421875 C 99.015625 96.550781 102.085938 93.589844 105.996094 93.5 C 109.914062 93.589844 112.984375 96.550781 113.996094 99.429688 L 128.34375 137.1875 C 130.171875 142.859375 128.578125 144.960938 126.925781 145.71875 C 125.730469 146.265625 124.429688 146.546875 123.113281 146.546875 C 123.109375 146.546875 123.113281 146.546875 123.113281 146.546875 Z M 111.992188 125.492188 L 106 108.464844 L 100.007812 125.492188 Z M 138 145.75 C 134.828125 145.75 132.25 143.28125 132.25 140.25 L 132.25 99.5 C 132.25 96.191406 134.996094 93.5 138.375 93.5 C 141.753906 93.5 144.5 96.191406 144.5 99.5 L 144.5 134.75 L 157.25 134.75 C 160.421875 134.75 163 137.21875 163 140.25 C 163 143.28125 160.421875 145.75 157.25 145.75 Z M 171.335938 146.546875 C 168.023438 146.546875 165.335938 143.855469 165.335938 140.546875 L 165.335938 99.5 C 165.335938 96.191406 168.023438 93.5 171.335938 93.5 C 174.644531 93.5 177.335938 96.191406 177.335938 99.5 L 177.335938 112.394531 L 194.074219 95.65625 C 194.933594 94.796875 196.117188 94.320312 197.402344 94.320312 C 198.898438 94.320312 200.402344 94.96875 201.53125 96.09375 C 202.582031 97.144531 203.210938 98.492188 203.296875 99.898438 C 203.382812 101.3125 202.910156 102.609375 201.972656 103.550781 L 188.296875 117.222656 L 203.066406 136.785156 C 204.03125 138.054688 204.445312 139.65625 204.21875 141.230469 C 204.003906 142.808594 203.164062 144.234375 201.890625 145.1875 C 200.851562 145.976562 199.585938 146.402344 198.28125 146.398438 C 196.398438 146.410156 194.617188 145.523438 193.488281 144.015625 L 179.417969 125.371094 L 177.335938 127.453125 L 177.335938 140.542969 C 177.332031 143.855469 174.648438 146.542969 171.335938 146.546875 Z M 171.335938 146.546875 "/>
</g>
</svg>
